<svg id="Layer_1" data-name="Layer 1" xmlns="http://www.w3.org/2000/svg" viewBox="0 0 41.71 22.39"><path style="fill:#000000" d="M7181.21,7210.25l19.35-19.38a1.5,1.5,0,0,0-2.12-2.12l-18.83,18.85a1.5,1.5,0,0,0,2.13,2.12l18.82-18.85-2.12-2.12-19.35,19.38a1.5,1.5,0,0,0,2.12,2.12Z" transform="translate(-7178.65 -7188.3)"/><path style="fill:#000000" d="M7219.91,7208.13l-19.35-19.38-2.12,2.12,18.82,18.85a1.5,1.5,0,0,0,2.13-2.12l-18.83-18.85a1.5,1.5,0,0,0-2.12,2.12l19.35,19.38a1.5,1.5,0,0,0,2.12-2.12Z" transform="translate(-7178.65 -7188.3)"/></svg>